<?xml version="1.0" encoding="UTF-8" standalone="no"?><svg xmlns:rdf="http://www.w3.org/1999/02/22-rdf-syntax-ns#" xmlns="http://www.w3.org/2000/svg" height="22" width="22" version="1.1" xmlns:cc="http://creativecommons.org/ns#" xmlns:dc="http://purl.org/dc/elements/1.1/" viewBox="0 0 22 22"><rect rx="2" height="22" width="22" y="0" x="0" fill="#d23c22"/><g transform="translate(3,4)" fill="#fff"><rect rx="1" height="2" width="7" y="10" x="8"/><path d="m2 9.7c0.4-0.4 0.9-0.7 1.3-1.1 0.5-0.4 0.9-0.8 1.4-1.1 0.4-0.4 0.8-0.7 1.1-1-0.3-0.2-0.6-0.5-1.1-0.9-0.4-0.4-0.8-0.8-1.3-1.2s-0.9-0.7-1.4-1.1c-0.4-0.4-0.8-0.7-1-0.9-0.3-0.3-0.4-0.6-0.4-0.9s0.1-0.6 0.3-0.8 0.4-0.3 0.7-0.3c0.2 0 0.3 0.1 0.6 0.2 0 0 0.2 0.2 0.5 0.4 0.3 0.3 0.7 0.6 1.1 1 0.4 0.3 0.8 0.7 1.3 1.1s0.9 0.8 1.3 1.1 0.8 0.6 1.1 0.9 0.5 0.4 0.6 0.5c0.3 0.3 0.4 0.6 0.4 1 0 0.3-0.1 0.6-0.4 0.9-0.4 0.3-0.9 0.7-1.4 1.1s-1 0.9-1.6 1.3c-0.5 0.4-1 0.9-1.6 1.3-0.5 0.4-0.9 0.8-1.4 1.1-0.2 0.1-0.4 0.2-0.6 0.2-0.3 0-0.5-0.1-0.7-0.3s-0.3-0.4-0.3-0.7 0.1-0.6 0.3-0.9c0.3-0.3 0.7-0.6 1.2-0.9z"/></g></svg>
